<svg xmlns="http://www.w3.org/2000/svg" viewBox="0 0 540 960" width="540" height="960" font-family="-apple-system,'PingFang SC','Microsoft YaHei',sans-serif">
  <defs>
    <linearGradient id="gr2" x1="0" y1="0" x2="0" y2="1">
      <stop offset="0" stop-color="#ff4d4f"/><stop offset="1" stop-color="#f53f3f"/>
    </linearGradient>
  </defs>
  <rect width="540" height="960" rx="46" fill="#0c0d10"/>
  <rect x="14" y="14" width="512" height="932" rx="36" fill="#f5f5f5"/>
  <rect x="14" y="14" width="512" height="84" rx="36" fill="url(#gr2)"/>
  <text x="270" y="58" font-size="24" font-weight="700" fill="#fff" text-anchor="middle">聊天</text>
  <text x="478" y="56" font-size="22" fill="#fff" opacity="0.8">+</text>
  <rect x="32" y="108" width="476" height="100" rx="16" fill="#fff" stroke="#eee" stroke-width="1"/>
  <circle cx="68" cy="158" r="26" fill="#ff4d4f"/>
  <text x="68" y="165" font-size="20" fill="#fff" text-anchor="middle">智</text>
  <text x="110" y="146" font-size="17" font-weight="700" fill="#1a1a1a">智能助手</text>
  <text x="110" y="170" font-size="13" fill="#999">有什么可以帮你？</text>
  <text x="458" y="158" font-size="13" fill="#999">刚刚</text>
  <rect x="32" y="224" width="476" height="100" rx="16" fill="#fff" stroke="#eee" stroke-width="1"/>
  <circle cx="68" cy="274" r="26" fill="#ff8a3d"/>
  <text x="68" y="281" font-size="20" fill="#fff" text-anchor="middle">友</text>
  <text x="110" y="262" font-size="17" font-weight="700" fill="#1a1a1a">好友5129</text>
  <text x="110" y="286" font-size="13" fill="#999">收到新消息</text>
  <text x="458" y="274" font-size="13" fill="#999">5分钟前</text>
  <rect x="32" y="340" width="476" height="100" rx="16" fill="#fff" stroke="#eee" stroke-width="1"/>
  <circle cx="68" cy="390" r="26" fill="#722ed1"/>
  <text x="68" y="397" font-size="20" fill="#fff" text-anchor="middle">群</text>
  <text x="110" y="378" font-size="17" font-weight="700" fill="#1a1a1a">热点讨论群</text>
  <text x="110" y="402" font-size="13" fill="#999">3人在线</text>
  <text x="458" y="390" font-size="13" fill="#999">12分钟前</text>
  <rect x="14" y="880" width="512" height="68" rx="0" fill="#fff" stroke="#eee" stroke-width="1"/>
  <g font-size="12" text-anchor="middle">
    <text x="108" y="902" fill="#999">🔥</text>
    <text x="108" y="920" fill="#999">热榜</text>
    <text x="232" y="902" fill="#999">✨</text>
    <text x="232" y="920" fill="#999">发现</text>
    <text x="356" y="902" fill="#999">📹</text>
    <text x="356" y="920" fill="#999">视频</text>
    <text x="480" y="902" fill="#ff4d4f">💬</text>
    <text x="480" y="920" fill="#ff4d4f" font-weight="700">聊天</text>
  </g>
</svg>
