<svg xmlns="http://www.w3.org/2000/svg" viewBox="0 0 540 960" width="540" height="960" font-family="-apple-system,'PingFang SC','Microsoft YaHei',sans-serif">
  <defs>
    <linearGradient id="gr3" x1="0" y1="0" x2="0" y2="1">
      <stop offset="0" stop-color="#ff4d4f"/><stop offset="1" stop-color="#f53f3f"/>
    </linearGradient>
  </defs>
  <rect width="540" height="960" rx="46" fill="#0c0d10"/>
  <rect x="14" y="14" width="512" height="932" rx="36" fill="#f5f5f5"/>
  <rect x="14" y="14" width="512" height="84" rx="36" fill="url(#gr3)"/>
  <text x="58" y="58" font-size="24" font-weight="700" fill="#fff">🔥</text>
  <text x="88" y="58" font-size="24" font-weight="700" fill="#fff">热点</text>
  <rect x="142" y="36" width="298" height="36" rx="18" fill="#fff" opacity="0.9"/>
  <text x="162" y="58" font-size="14" fill="#999">搜索热点...</text>
  <text x="420" y="56" font-size="20" fill="#fff" opacity="0.8">🔍</text>
  <text x="460" y="56" font-size="20" fill="#fff" opacity="0.8">⚙</text>
  <rect x="14" y="84" width="512" height="52" fill="#fff"/>
  <g font-size="14" text-anchor="middle">
    <text x="56" y="116" font-weight="700" fill="#ff4d4f">微博</text>
    <text x="120" y="116" fill="#666">知乎</text>
    <text x="184" y="116" fill="#666">百度</text>
    <text x="248" y="116" fill="#666">抖音</text>
    <text x="312" y="116" fill="#666">B站</text>
    <text x="376" y="116" fill="#666">头条</text>
    <text x="440" y="116" fill="#666">快手</text>
    <text x="496" y="116" fill="#666">贴吧</text>
  </g>
  <rect x="52" y="120" width="44" height="3" rx="1.5" fill="#ff4d4f"/>
  <rect x="32" y="148" width="476" height="92" rx="12" fill="#fff" stroke="#eee" stroke-width="1"/>
  <rect x="48" y="164" width="36" height="36" rx="6" fill="#ff4d4f"/>
  <text x="66" y="186" font-size="18" font-weight="800" fill="#fff" text-anchor="middle">1</text>
  <text x="98" y="178" font-size="16" font-weight="700" fill="#1a1a1a">爆款短视频挑战赛</text>
  <text x="98" y="202" font-size="13" fill="#999">娱乐 · 5分钟前</text>
  <text x="460" y="190" font-size="14" font-weight="700" fill="#ff4d4f">3482w</text>
  <rect x="32" y="256" width="476" height="92" rx="12" fill="#fff" stroke="#eee" stroke-width="1"/>
  <rect x="48" y="272" width="36" height="36" rx="6" fill="#ff4d4f"/>
  <text x="66" y="294" font-size="18" font-weight="800" fill="#fff" text-anchor="middle">2</text>
  <text x="98" y="286" font-size="16" font-weight="700" fill="#1a1a1a">科技前沿速览</text>
  <text x="98" y="310" font-size="13" fill="#999">科技 · 28分钟前</text>
  <text x="460" y="302" font-size="14" font-weight="700" fill="#ff4d4f">2150w</text>
  <rect x="32" y="364" width="476" height="92" rx="12" fill="#fff" stroke="#eee" stroke-width="1"/>
  <rect x="48" y="380" width="36" height="36" rx="6" fill="#ff8a3d"/>
  <text x="66" y="402" font-size="18" font-weight="800" fill="#fff" text-anchor="middle">3</text>
  <text x="98" y="394" font-size="16" font-weight="700" fill="#1a1a1a">美食探店合集</text>
  <text x="98" y="418" font-size="13" fill="#999">美食 · 1小时前</text>
  <text x="460" y="410" font-size="14" font-weight="700" fill="#ff8a3d">1820w</text>
  <rect x="32" y="472" width="476" height="92" rx="12" fill="#fff" stroke="#eee" stroke-width="1"/>
  <rect x="48" y="488" width="36" height="36" rx="6" fill="#ccc"/>
  <text x="66" y="510" font-size="18" font-weight="800" fill="#999" text-anchor="middle">4</text>
  <text x="98" y="502" font-size="16" font-weight="600" fill="#444">旅行vlog：海岛秘境</text>
  <text x="98" y="526" font-size="13" fill="#999">旅行 · 2小时前</text>
  <text x="460" y="514" font-size="14" font-weight="600" fill="#999">960w</text>
  <rect x="14" y="880" width="512" height="68" rx="0" fill="#fff" stroke="#eee" stroke-width="1"/>
  <g font-size="12" text-anchor="middle">
    <text x="108" y="902" fill="#ff4d4f">🔥</text>
    <text x="108" y="920" fill="#ff4d4f" font-weight="700">热榜</text>
    <text x="232" y="902" fill="#999">✨</text>
    <text x="232" y="920" fill="#999">发现</text>
    <text x="356" y="902" fill="#999">📹</text>
    <text x="356" y="920" fill="#999">视频</text>
    <text x="480" y="902" fill="#999">💬</text>
    <text x="480" y="920" fill="#999">聊天</text>
  </g>
</svg>
