<svg xmlns="http://www.w3.org/2000/svg" viewBox="0 0 540 960" width="540" height="960" font-family="-apple-system,'PingFang SC','Microsoft YaHei',sans-serif">
  <defs>
    <linearGradient id="gr" x1="0" y1="0" x2="0" y2="1">
      <stop offset="0" stop-color="#ff4d4f"/><stop offset="1" stop-color="#f53f3f"/>
    </linearGradient>
  </defs>
  <rect width="540" height="960" rx="46" fill="#0c0d10"/>
  <rect x="14" y="14" width="512" height="932" rx="36" fill="#f5f5f5"/>
  <rect x="14" y="14" width="512" height="84" rx="36" fill="url(#gr)"/>
  <text x="270" y="58" font-size="24" font-weight="700" fill="#fff" text-anchor="middle">视频</text>
  <text x="478" y="56" font-size="22" fill="#fff" opacity="0.8">⋮</text>
  <rect x="32" y="108" width="476" height="112" rx="16" fill="#fff" stroke="#eee" stroke-width="1"/>
  <rect x="48" y="124" width="180" height="80" rx="10" fill="#1a1a1a"/>
  <circle cx="138" cy="164" r="18" fill="#fff" opacity="0.85"/>
  <path d="M134 158 L142 164 L134 170 Z" fill="#ff4d4f"/>
  <text x="248" y="148" font-size="16" font-weight="700" fill="#1a1a1a">热点视频推荐</text>
  <text x="248" y="172" font-size="13" fill="#999">12.5w 播放 · 5分钟前</text>
  <text x="464" y="164" font-size="12" fill="#fff" background="#ff4d4f" padding="4 10" rx="12">🔥 热门</text>
  <rect x="32" y="236" width="476" height="112" rx="16" fill="#fff" stroke="#eee" stroke-width="1"/>
  <rect x="48" y="252" width="180" height="80" rx="10" fill="#2a2a2a"/>
  <circle cx="138" cy="292" r="18" fill="#fff" opacity="0.85"/>
  <path d="M134 286 L142 292 L134 298 Z" fill="#ff4d4f"/>
  <text x="248" y="276" font-size="16" font-weight="700" fill="#1a1a1a">精彩内容分享</text>
  <text x="248" y="300" font-size="13" fill="#999">8.2w 播放 · 12分钟前</text>
  <rect x="32" y="364" width="476" height="112" rx="16" fill="#fff" stroke="#eee" stroke-width="1"/>
  <rect x="48" y="380" width="180" height="80" rx="10" fill="#3a3a3a"/>
  <circle cx="138" cy="420" r="18" fill="#fff" opacity="0.85"/>
  <path d="M134 414 L142 420 L134 426 Z" fill="#ff4d4f"/>
  <text x="248" y="404" font-size="16" font-weight="700" fill="#1a1a1a">今日精选合集</text>
  <text x="248" y="428" font-size="13" fill="#999">5.6w 播放 · 1小时前</text>
  <rect x="14" y="880" width="512" height="68" rx="0" fill="#fff" stroke="#eee" stroke-width="1"/>
  <g font-size="12" text-anchor="middle">
    <text x="108" y="902" fill="#999">🔥</text>
    <text x="108" y="920" fill="#999">热榜</text>
    <text x="232" y="902" fill="#999">✨</text>
    <text x="232" y="920" fill="#999">发现</text>
    <text x="356" y="902" fill="#ff4d4f">📹</text>
    <text x="356" y="920" fill="#ff4d4f" font-weight="700">视频</text>
    <text x="480" y="902" fill="#999">💬</text>
    <text x="480" y="920" fill="#999">聊天</text>
  </g>
</svg>
